<?xml version="1.0" encoding="UTF-8" standalone="no"?>
<!-- Created with Inkscape (http://www.inkscape.org/) -->

<svg
   xmlns:dc="http://purl.org/dc/elements/1.1/"
   xmlns:cc="http://creativecommons.org/ns#"
   xmlns:rdf="http://www.w3.org/1999/02/22-rdf-syntax-ns#"
   xmlns:svg="http://www.w3.org/2000/svg"
   xmlns="http://www.w3.org/2000/svg"
   xmlns:sodipodi="http://sodipodi.sourceforge.net/DTD/sodipodi-0.dtd"
   xmlns:inkscape="http://www.inkscape.org/namespaces/inkscape"
   width="64"
   height="64"
   id="svg4609"
   version="1.1"
   inkscape:version="0.92.1 r15371"
   sodipodi:docname="biblencross.svg"
   viewBox="0 0 60.000002 59.999997">
  <defs
     id="defs4611" />
  <sodipodi:namedview
     id="base"
     pagecolor="#ffffff"
     bordercolor="#666666"
     borderopacity="1.0"
     inkscape:pageopacity="0.0"
     inkscape:pageshadow="2"
     inkscape:zoom="2.8"
     inkscape:cx="82.496836"
     inkscape:cy="61.257391"
     inkscape:document-units="px"
     inkscape:current-layer="layer1"
     showgrid="false"
     fit-margin-top="0"
     fit-margin-left="0"
     fit-margin-right="0"
     fit-margin-bottom="0"
     inkscape:window-width="1600"
     inkscape:window-height="821"
     inkscape:window-x="0"
     inkscape:window-y="0"
     inkscape:window-maximized="1" />
  <metadata
     id="metadata4614">
    <rdf:RDF>
      <cc:Work
         rdf:about="">
        <dc:format>image/svg+xml</dc:format>
        <dc:type
           rdf:resource="http://purl.org/dc/dcmitype/StillImage" />
        <dc:title></dc:title>
      </cc:Work>
    </rdf:RDF>
  </metadata>
  <g
     inkscape:label="Layer 1"
     inkscape:groupmode="layer"
     id="layer1"
     transform="translate(-231.08777,-468.61778)">
    <g
       id="g4159"
       transform="matrix(0.15219615,-0.0362886,0.0362886,0.15219615,187.75575,450.27023)"
       style="stroke-width:6.39130592">
      <g
         id="g4153"
         style="stroke-width:6.39130592">
        <path
           style="fill:#000000;stroke-width:6.39130592"
           d="m 231.75444,527.95118 c -0.36667,-0.3667 -0.66667,-50.04364 -0.66667,-110.39314 0,-99.1335 0.1527,-109.78486 1.58179,-110.33325 0.86998,-0.33385 3.29527,-0.60699 5.38953,-0.60699 5.52629,0 17.15096,-2.35976 44.41379,-9.01584 32.35045,-7.89819 41.69039,-9.40766 53.59493,-8.66176 16.87529,1.05736 29.79227,5.51104 39.10645,13.48363 l 4.05533,3.47121 4.17909,-4.08463 c 9.97386,-9.74841 26.65862,-13.77432 53.17909,-12.8317 18.70059,0.66467 26.72575,2.28349 47.11093,9.50316 16.46368,5.83082 26.64507,8.12993 36.09691,8.15124 3.73569,0.008 7.35665,0.37371 8.04659,0.81176 0.996,0.63236 1.20201,23.4448 1,110.73467 l -0.25443,109.93824 -6,0.3262 c -6.75421,0.3671 -35.08701,-1.4227 -46.5,-2.9375 -4.125,-0.5475 -13.35,-2.0677 -20.5,-3.3781 -17.06075,-3.1269 -31.53636,-4.0543 -39.11757,-2.506 -3.23534,0.6607 -9.38166,2.955 -13.65849,5.0983 l -7.77606,3.8971 h -15.79962 c -15.47241,0 -15.84728,-0.051 -18.10044,-2.4491 -3.20411,-3.4106 -9.85056,-5.454 -21.54782,-6.6249 -12.81878,-1.2831 -23.38426,-0.5622 -53,3.6163 -34.03937,4.8025 -53.1519,6.4725 -54.83333,4.7911 z m 50.57524,-8.0764 c 21.74244,-3.2827 26.38401,-3.6674 44.75809,-3.7097 22.5161,-0.052 29.00058,1.058 34.82785,5.9613 2.87472,2.4189 3.40764,2.4913 18.31651,2.4877 13.91445,0 15.68413,-0.2041 18.85564,-2.1382 1.925,-1.174 6.32277,-3.1973 9.77283,-4.4963 8.89356,-3.3485 25.9408,-3.3123 44.4106,0.094 20.61271,3.802 35.34616,5.4824 54.35663,6.1996 l 17.45994,0.6587 V 417.77464 c 0,-94.58417 -0.176,-107.15724 -1.5,-107.15724 -1.32184,0 -1.50054,10.36313 -1.50455,87.24997 -0.002,47.98747 -0.29912,92.36251 -0.65915,98.61121 l -0.6546,11.3611 -6.09085,-0.6748 c -3.34997,-0.3712 -16.50204,-2.8872 -29.22684,-5.5911 -33.93227,-7.2103 -41.09386,-8.2533 -57.36401,-8.3545 -11.42632,-0.071 -15.76549,0.2991 -20.4699,1.7459 -12.57857,3.8684 -19.09643,9.2137 -23.75041,19.4778 -1.605,3.5398 -3.26264,6.0396 -3.68365,5.5552 -0.42101,-0.4844 -1.57846,-3.0874 -2.57212,-5.7844 -3.6741,-9.9722 -12.40861,-16.4729 -25.10384,-18.6837 -9.00403,-1.568 -26.93096,-0.5517 -44.42008,2.5181 -41.64967,7.3106 -49.39551,8.5197 -58.58865,9.1458 l -10.08864,0.6871 -0.66136,-13.7899 c -0.36374,-7.58454 -0.66135,-51.96884 -0.66135,-98.63191 0,-74.74833 -0.17845,-84.84187 -1.5,-84.84187 -1.324,0 -1.5,12.57187 -1.5,107.14674 v 107.14674 l 11.49191,-0.687 c 6.32055,-0.3779 22.40805,-2.3352 35.75,-4.3495 z m 110.48523,-20.8794 c 2.29318,-1.749 7.23019,-4.237 10.97114,-5.5288 6.17893,-2.1337 8.44987,-2.3453 24.80172,-2.3103 19.72636,0.042 22.971,0.492 57.77084,8.0096 11.42396,2.4678 23.46146,4.7682 26.75,5.1119 l 5.97916,0.6249 v -97.08111 -97.08122 l -4.75,-0.62814 c -10.41517,-1.3773 -16.48722,-2.90662 -33.75,-8.50033 -9.9,-3.20793 -20.475,-6.36043 -23.5,-7.00557 -8.57038,-1.82778 -35.41332,-2.4506 -45.02801,-1.04474 -14.89728,2.17827 -22.00597,5.88491 -28.00315,14.60152 l -2.96884,4.31506 v 31.40482 c 0,17.2726 0.2983,61.7929 0.66289,98.93397 l 0.6629,67.52924 3.11597,-4.0853 c 1.71378,-2.247 4.9922,-5.5164 7.28538,-7.2655 z M 376.50248,309.09486 c -3.56886,-4.67901 -12.49978,-10.40202 -19.75781,-12.66098 -3.3283,-1.03588 -10.4911,-2.40431 -15.91732,-3.04095 -12.70746,-1.49093 -19.06192,-0.58318 -54.37225,7.76715 -14.92296,3.52905 -31.23546,6.97522 -36.25,7.65816 l -9.11733,1.24171 v 97.43092 97.43091 l 10.25,-0.6284 c 5.6375,-0.3455 15.425,-1.5467 21.75,-2.6693 44.80547,-7.9523 52.80315,-9.0878 64.98642,-9.2268 7.55103,-0.086 14.83226,0.3976 18.36036,1.2197 7.51652,1.7515 15.27081,6.4248 19.1181,11.522 l 3.03512,4.0212 0.25489,-98.33151 0.25488,-98.3315 -2.59506,-3.4023 z"
           id="path3413"
           inkscape:connector-curvature="0"
           inkscape:export-xdpi="200"
           inkscape:export-ydpi="200" />
        <path
           style="color:#000000;display:inline;overflow:visible;visibility:visible;fill:#000000;fill-opacity:1;fill-rule:nonzero;stroke:none;stroke-width:12.78261185;marker:none;enable-background:accumulate"
           d="m 413.12614,323.82067 c -6.99427,-0.6798 -13.17228,4.4037 -13.85206,11.398 l -12.40066,127.59177 c -0.67978,6.9943 4.40374,13.1723 11.39801,13.8521 l 22.56726,2.1933 c 6.99428,0.6798 13.17229,-4.4037 13.85207,-11.398 l 12.40066,-127.59177 c 0.67977,-6.9943 -4.40374,-13.1723 -11.39802,-13.8521 z m 10.78132,6.265 c 2.11669,0.2058 3.66074,2.0823 3.45502,4.199 -0.20571,2.1166 -2.08221,3.6607 -4.1989,3.455 -2.1167,-0.2057 -3.66075,-2.0822 -3.45503,-4.1989 0.20572,-2.1167 2.08222,-3.6608 4.19891,-3.4551 z m -6.99534,31.8181 7.73283,0.7516 -1.67565,17.241 16.25474,1.5799 -0.80908,8.3246 -16.25473,-1.5798 -4.58986,47.22547 -7.73284,-0.7515 4.58986,-47.22557 -16.25475,-1.5798 0.80907,-8.3246 16.25475,1.5798 z"
           id="rect3428"
           inkscape:connector-curvature="0"
           inkscape:export-filename="/home/sarah/path3413.png"
           inkscape:export-xdpi="200"
           inkscape:export-ydpi="200" />
      </g>
      <path
         inkscape:export-ydpi="200"
         inkscape:export-xdpi="200"
         inkscape:export-filename="/home/sarah/path3413.png"
         sodipodi:nodetypes="ssccsssccsss"
         inkscape:connector-curvature="0"
         id="path4310"
         d="m 415.74402,278.99669 c -2.2983,-0.1019 -4.8241,0.0321 -7.5625,0.40625 -15.55104,2.12472 -20.9375,19.40625 -20.9375,19.40625 l 7.45982,-1.24554 c 0,0 3.37828,-10.38004 14.35268,-11.87946 9.77138,-1.33505 13.9625,0.58677 16.09375,3.6875 2.13125,3.10073 2.45572,8.73705 1.375,15.4375 -2.21913,13.75859 -5.75,23.65628 -5.75,23.65628 l 6,2.125 c 0,0 3.68893,-10.45269 6,-24.78128 1.18437,-7.34314 1.36334,-14.54691 -2.40625,-20.03125 -2.82719,-4.11325 -7.73011,-6.47554 -14.625,-6.78125 z"
         style="color:#000000;font-style:normal;font-variant:normal;font-weight:normal;font-stretch:normal;font-size:medium;line-height:normal;font-family:Sans;-inkscape-font-specification:Sans;text-indent:0;text-align:start;text-decoration:none;text-decoration-line:none;letter-spacing:normal;word-spacing:normal;text-transform:none;writing-mode:lr-tb;direction:ltr;baseline-shift:baseline;text-anchor:start;display:inline;overflow:visible;visibility:visible;fill:#000000;fill-opacity:1;stroke:none;stroke-width:40.53534698;marker:none;enable-background:accumulate" />
    </g>
  </g>
</svg>
